<svg xmlns="http://www.w3.org/2000/svg" width="1919" height="30.866" viewBox="0 0 1919 30.866">
  <g id="Component_1_1" data-name="Component 1 – 1" transform="translate(0 1)">
    <path id="Path_1" data-name="Path 1" d="M2134-1058.468l26.866,26.866h11.66l-26.866-26.866Z" transform="translate(-2064.369 1059.468)" fill="#c69b6d" stroke="#707070" stroke-width="1"/>
    <path id="Path_2" data-name="Path 2" d="M2134-1058.468l26.866,26.866h11.66l-26.866-26.866Z" transform="translate(-2052.709 1059.468)" fill="#c41e3a" stroke="#707070" stroke-width="1"/>
    <path id="Path_3" data-name="Path 3" d="M2134-1058.468l26.866,26.866h11.66l-26.866-26.866Z" transform="translate(-2041.031 1059.468)" fill="#ff7c0a" stroke="#707070" stroke-width="1"/>
    <path id="Path_4" data-name="Path 4" d="M2134-1058.468l26.866,26.866h11.66l-26.866-26.866Z" transform="translate(-2029.334 1059.468)" fill="#fff468" stroke="#707070" stroke-width="1"/>
    <path id="Path_5" data-name="Path 5" d="M2134-1058.468l26.866,26.866h11.66l-26.866-26.866Z" transform="translate(-2017.656 1059.468)" fill="#aad372" stroke="#707070" stroke-width="1"/>
    <path id="Path_6" data-name="Path 6" d="M2134-1058.468l26.866,26.866h11.66l-26.866-26.866Z" transform="translate(-2006.059 1059.468)" fill="#00ff98" stroke="#707070" stroke-width="1"/>
    <path id="Path_7" data-name="Path 7" d="M2134-1058.468l26.866,26.866h11.66l-26.866-26.866Z" transform="translate(-1994.463 1059.468)" fill="#33937f" stroke="#707070" stroke-width="1"/>
    <path id="Path_8" data-name="Path 8" d="M2134-1058.468l26.866,26.866h11.66l-26.866-26.866Z" transform="translate(-1982.867 1059.468)" fill="#3fc7eb" stroke="#707070" stroke-width="1"/>
    <path id="Path_9" data-name="Path 9" d="M2134-1058.468l26.866,26.866h11.66l-26.866-26.866Z" transform="translate(-1971.189 1059.468)" fill="#0070dd" stroke="#707070" stroke-width="1"/>
    <path id="Path_10" data-name="Path 10" d="M2134-1058.468l26.866,26.866h11.66l-26.866-26.866Z" transform="translate(-1959.51 1059.468)" fill="#8788ee" stroke="#707070" stroke-width="1"/>
    <path id="Path_11" data-name="Path 11" d="M2134-1058.468l26.866,26.866h11.66l-26.866-26.866Z" transform="translate(-1947.832 1059.468)" fill="#a330c9" stroke="#707070" stroke-width="1"/>
    <path id="Path_12" data-name="Path 12" d="M2134-1058.468l26.866,26.866h11.66l-26.866-26.866Z" transform="translate(-1936.153 1059.468)" fill="#f48cba" stroke="#707070" stroke-width="1"/>
    <path id="Path_13" data-name="Path 13" d="M2134-1058.468l26.866,26.866h11.66l-26.866-26.866Z" transform="translate(-1924.475 1059.468)" fill="#fff" stroke="#707070" stroke-width="1"/>
    <path id="Path_14" data-name="Path 14" d="M0,0H1919" transform="translate(0 28.866)" fill="none" stroke="#707070" stroke-width="2"/>
    <path id="Path_15" data-name="Path 15" d="M0,0H1919" fill="none" stroke="#707070" stroke-width="2"/>
  </g>
</svg>
