<?xml version="1.0" encoding="UTF-8"?><svg id="Layer_2" xmlns="http://www.w3.org/2000/svg" viewBox="0 0 145.23 145.23"><defs><style>.cls-1{stroke:#8e4b9d;stroke-width:1.23px;}.cls-1,.cls-2,.cls-3,.cls-4,.cls-5,.cls-6,.cls-7,.cls-8,.cls-9,.cls-10,.cls-11,.cls-12,.cls-13,.cls-14,.cls-15,.cls-16{fill:none;}.cls-17{fill:#fff;}.cls-2{stroke:#c59a6c;stroke-width:1.23px;}.cls-3{stroke-width:1.23px;}.cls-3,.cls-7,.cls-9,.cls-15{stroke:#231f20;stroke-miterlimit:10;}.cls-4{stroke:#376fb6;stroke-width:1.23px;}.cls-5{stroke:#32937f;stroke-width:1.23px;}.cls-6{stroke:#f47b20;stroke-width:1.23px;}.cls-7{stroke-width:1.23px;}.cls-8{stroke:#8585c0;}.cls-8,.cls-14{stroke-width:1.23px;}.cls-9{stroke-width:1.23px;}.cls-10{stroke:#6fc283;stroke-width:1.23px;}.cls-11{stroke:#c4203b;stroke-width:1.23px;}.cls-12{stroke:#43c6ea;stroke-width:1.23px;}.cls-13{stroke:#f38dba;stroke-width:1.23px;}.cls-14{stroke:#fdf16d;}.cls-15{stroke-width:1.23px;}.cls-16{stroke:#aad272;stroke-width:1.23px;}</style></defs><g id="Layer_1-2"><ellipse class="cls-15" cx="72.62" cy="72.61" rx="10.53" ry="72.02" transform="translate(-1.81 1.86) rotate(-1.45)"/><ellipse class="cls-3" cx="72.62" cy="72.61" rx="10.53" ry="72.02" transform="translate(-30.04 75.21) rotate(-46.45)"/><ellipse class="cls-9" cx="72.62" cy="72.61" rx="72.02" ry="10.53" transform="translate(-30.04 75.21) rotate(-46.45)"/><ellipse class="cls-7" cx="72.62" cy="72.61" rx="72.02" ry="10.53" transform="translate(-1.81 1.86) rotate(-1.45)"/><ellipse class="cls-11" cx="72.61" cy="72.62" rx="10.53" ry="72.02" transform="translate(-1.81 1.86) rotate(-1.45)"/><ellipse class="cls-1" cx="72.61" cy="72.62" rx="10.53" ry="72.02" transform="translate(-30.05 75.21) rotate(-46.45)"/><ellipse class="cls-16" cx="72.61" cy="72.62" rx="72.02" ry="10.53" transform="translate(-30.05 75.21) rotate(-46.45)"/><ellipse class="cls-12" cx="72.61" cy="72.62" rx="72.02" ry="10.53" transform="translate(-1.81 1.86) rotate(-1.45)"/><ellipse class="cls-6" cx="72.61" cy="72.62" rx="72.02" ry="10.53" transform="translate(-15.84 124.79) rotate(-75.54)"/><ellipse class="cls-13" cx="72.61" cy="72.62" rx="10.53" ry="72.02" transform="translate(-26.83 46.97) rotate(-30.54)"/><ellipse class="cls-10" cx="72.61" cy="72.62" rx="72.02" ry="10.53" transform="translate(-26.83 46.97) rotate(-30.54)"/><ellipse class="cls-4" cx="72.61" cy="72.62" rx="10.53" ry="72.02" transform="translate(-15.84 124.79) rotate(-75.54)"/><ellipse class="cls-14" cx="72.61" cy="72.29" rx="72.02" ry="10.53" transform="translate(-26.16 99.57) rotate(-60.31)"/><ellipse class="cls-2" cx="72.61" cy="72.29" rx="10.53" ry="72.02" transform="translate(-16.52 21.74) rotate(-15.31)"/><ellipse class="cls-5" cx="72.61" cy="72.29" rx="72.02" ry="10.53" transform="translate(-16.52 21.74) rotate(-15.31)"/><ellipse class="cls-8" cx="72.61" cy="72.29" rx="10.53" ry="72.02" transform="translate(-26.16 99.57) rotate(-60.31)"/><circle class="cls-17" cx="72.63" cy="72.63" r="2.99"/></g></svg>